HIERARCHY
ROOT Hips
{
	OFFSET 0.00000 0.00000 0.00000
	CHANNELS 6 Xposition Yposition Zposition Yrotation Zrotation Xrotation 
	JOINT Lumbar
	{
		OFFSET 0 0 0
		CHANNELS 3 Zrotation Xrotation Yrotation
		JOINT Neck
		{
			OFFSET 0.00 0.2701 0.00
			CHANNELS 3 Zrotation Xrotation Yrotation
			End Site
			{
				OFFSET 0.00 0.1379 0.00
			}
		}
		JOINT RightShoulder
		{
			OFFSET 0.0119 0.2289 0.1181
			CHANNELS 3 Zrotation Xrotation Yrotation
			JOINT RightElbow
			{
				OFFSET 0.00 -0.1475 0.00
				CHANNELS 2 Zrotation Yrotation
				JOINT RightWrist
				{
					OFFSET 0.00 -0.1605 0.00
					CHANNELS 2 Zrotation Xrotation
					End Site
					{
						OFFSET 0.0040 -0.1068 0.0006
					}
				}
			}
		}
		JOINT LeftShoulder
		{
			OFFSET 0.0119 0.2289 -0.1181
			CHANNELS 3 Zrotation Xrotation Yrotation
			JOINT LeftElbow
			{
				OFFSET 0.00 -0.1475 0.00
				CHANNELS 2 Zrotation Yrotation
				JOINT LeftWrist
				{
					OFFSET 0.00 -0.1605 0.00
					CHANNELS 2 Zrotation Xrotation
					End Site
					{
						OFFSET 0.0040 -0.1068 -0.0006
					}
				}
			}
		}
	}
	JOINT RightHip
	{
		OFFSET 0.0316 -0.0424 0.0458
		CHANNELS 3 Zrotation Xrotation Yrotation
		JOINT RightKnee
		{
			OFFSET 0.00 -0.2438 0.00
			CHANNELS 1 Zrotation
			JOINT RightAnkle
			{
				OFFSET 0.00 -0.2449 0.00
				CHANNELS 3 Zrotation Xrotation Yrotation
				End Site
				{
					OFFSET 0.1237 -0.0542 0.0051
				}
			}
		}
	}
	JOINT LeftHip
	{
		OFFSET 0.0316 -0.0424 -0.0458
		CHANNELS 3 Zrotation Xrotation Yrotation
		JOINT LeftKnee
		{
			OFFSET 0.00 -0.2438 0.00
			CHANNELS 1 Zrotation
			JOINT LeftAnkle
			{
				OFFSET 0.00 -0.2449 0.00
				CHANNELS 3 Zrotation Xrotation Yrotation
				End Site
				{
					OFFSET 0.1237 -0.0542 -0.0051
				}
			}
		}
	}
}
MOTION
Frames: 30
Frame Time: 0.02
0.29216 0.00034 0.0742 -193.42603 -30.43219 0.93717 38.98208 1.37208 -10.78541 -23.88596 2.23089 -0.83079 -61.41594 -12.66325 -16.75642 137.62132 34.7939 41.37565 -12.38269 -54.49271 12.35815 19.83358 137.59744 -33.47608 37.24521 9.91497 33.47191 -0.25796 -7.44085 -26.20101 -6.62274 -3.36054 -2.39184 52.76496 11.74428 -0.8933 -17.72478 -11.53663 2.59031 2.18013
0.28631 0.00015 0.07622 -193.24113 -30.441 0.95125 39.01848 1.34439 -10.52344 -24.06635 2.3574 -0.83079 -61.44214 -10.18515 -18.33701 137.62835 34.06867 41.42927 -12.47402 -55.08593 11.07789 23.19052 137.64578 -31.67049 37.23213 9.99928 33.01653 -0.49073 -7.13974 -26.3438 -6.63542 -3.43283 -2.43256 52.64459 11.34628 -0.93024 -17.81057 -11.5713 2.52049 2.14378
0.28021 -2e-05 0.07871 -192.9508 -30.39787 0.98906 38.98636 1.29622 -10.25916 -24.06089 2.49237 -0.83079 -61.11379 -8.11076 -20.7822 137.62385 33.41261 40.87772 -12.35653 -54.5641 11.19106 27.52536 137.62554 -32.59133 35.50127 9.97616 32.4851 -0.79466 -6.97062 -26.46335 -6.66477 -3.50549 -2.47484 52.53593 10.8295 -0.94571 -18.68034 -11.66114 2.4805 2.12784
0.27418 -0.00018 0.08102 -192.714 -30.38497 1.01944 39.00221 1.2583 -9.99301 -24.14007 2.62174 -0.83079 -60.84982 -6.00962 -22.86526 137.61135 32.96912 40.3489 -12.22263 -54.48422 10.73467 31.37385 137.56175 -32.54559 34.47475 9.93779 31.99215 -1.07731 -6.74719 -26.59069 -6.68788 -3.57602 -2.51532 52.4198 10.36853 -0.94457 -19.18115 -11.71762 2.42562 2.10146
0.26832 -0.00045 0.0832 -192.45153 -30.34311 1.03504 38.95005 1.21579 -9.73926 -24.22338 2.75801 -0.83079 -60.9468 -3.26709 -24.81136 137.66228 31.63373 40.83233 -12.53013 -54.64086 10.00037 35.38494 137.78795 -31.34917 33.80994 10.14886 31.48064 -1.3126 -6.49738 -26.73 -6.70519 -3.65575 -2.56088 52.31513 9.90337 -1.04298 -19.75359 -11.80753 2.37339 2.07827
0.26205 -0.00047 0.08575 -192.2198 -30.34817 1.08737 39.02076 1.17852 -9.45852 -24.25279 2.8821 -0.83079 -60.23264 -1.93508 -27.24016 137.56829 32.07474 39.10573 -11.89681 -54.06228 10.16719 39.28479 137.40258 -33.13482 31.97612 9.83043 30.9896 -1.66427 -6.33316 -26.83938 -6.73883 -3.71592 -2.59602 52.18596 9.41603 -0.93895 -20.35657 -11.84112 2.32485 2.05448
0.25468 0.00024 0.08917 -192.07929 -30.51294 1.23428 39.46298 1.15693 -9.11146 -24.1693 2.9708 -0.83079 -57.28433 -4.5662 -30.91915 137.16979 37.97323 31.15908 -8.50224 -51.62719 12.63008 42.76406 135.36248 -43.27309 27.24347 7.98344 30.58498 -2.3122 -6.39053 -26.86536 -6.81092 -3.72399 -2.60269 52.01661 8.91394 -0.20967 -20.84622 -11.7104 2.26646 2.01732
0.24689 0.0012 0.09295 -191.97685 -30.72349 1.41751 40.02725 1.14204 -8.73637 -24.03865 3.04706 -0.83079 -53.55374 -8.57017 -35.03121 136.61182 45.55044 21.0663 -4.20843 -48.51349 15.92598 46.07655 132.7133 -56.19106 21.4063 5.6263 30.20215 -3.07564 -6.52499 -26.86398 -6.89952 -3.71211 -2.59878 51.81643 8.39068 0.71104 -21.33813 -11.52052 2.213 1.98007
0.23929 0.00203 0.09659 -191.86998 -30.90244 1.585 40.52639 1.12659 -8.3687 -23.93538 3.12877 -0.83079 -50.23894 -11.83654 -38.86515 136.062 51.95809 12.12966 -0.46931 -45.77908 18.74785 49.38827 130.33114 -67.32028 16.12443 3.56539 29.80201 -3.79201 -6.61556 -26.87809 -6.98199 -3.70766 -2.59904 51.61068 7.86468 1.49317 -21.82995 -11.3549 2.16643 1.94774
0.23169 0.00292 0.10013 -191.70575 -31.12653 1.7505 41.06751 1.09994 -8.02179 -23.80177 3.21128 -0.83079 -46.6526 -15.60073 -43.07843 135.77011 60.03706 2.39341 3.89007 -42.70465 22.02612 53.06227 127.9733 -80.72471 10.5479 1.22895 29.42939 -4.49042 -6.75549 -26.87484 -7.05847 -3.70922 -2.60152 51.48859 7.38439 2.48333 -22.34485 -11.20215 2.08398 1.89642
0.22399 0.00376 0.10395 -191.67058 -31.26636 1.92794 41.5466 1.09845 -7.62701 -23.72111 3.28951 -0.83079 -43.45581 -18.64423 -46.58539 134.91985 65.09444 -6.16074 7.17293 -40.19357 24.52702 55.9227 125.43882 -90.06168 5.35805 -0.65366 29.00693 -5.24966 -6.79988 -26.90613 -7.15209 -3.69468 -2.59751 51.18404 6.80836 3.09864 -22.80275 -11.00796 2.07496 1.88322
0.21602 0.00444 0.10844 -191.98991 -31.17837 2.13377 41.86277 1.16518 -7.09046 -23.81079 3.35495 -0.83079 -41.48783 -19.39778 -48.09628 132.42515 60.8461 -11.08032 7.22277 -39.39586 24.72827 56.62751 122.41624 -87.07137 1.40074 -1.15393 28.43306 -6.17538 -6.64532 -27.00266 -7.28108 -3.63005 -2.57224 50.38982 5.94804 2.51504 -23.09085 -10.71282 2.28581 1.98519
0.20796 0.00506 0.11319 -192.43676 -31.00146 2.34934 42.10541 1.25694 -6.51015 -23.95375 3.41716 -0.83079 -39.94857 -19.36956 -48.86373 129.40101 53.59182 -14.70608 6.16552 -39.1953 24.10301 56.503 119.26582 -79.9535 -2.1012 -1.1802 27.81178 -7.15341 -6.37871 -27.14348 -7.42825 -3.5515 -2.54171 49.4121 4.99718 1.5674 -23.31945 -10.37811 2.56707 2.1237
0.19998 0.00568 0.11782 -192.8211 -30.85477 2.55766 42.35704 1.33718 -5.9602 -24.06522 3.4835 -0.83079 -38.23923 -19.67401 -49.9304 126.71156 48.08666 -18.81713 5.63939 -38.73304 23.81461 56.72313 116.27151 -74.98721 -5.7338 -1.42562 27.21617 -8.08903 -6.10397 -27.28624 -7.57209 -3.48666 -2.51771 48.51356 4.10504 0.86547 -23.57939 -10.06168 2.80364 2.23872
0.19183 0.00644 0.12246 -193.22665 -30.75194 2.77963 42.71631 1.41859 -5.36355 -24.20644 3.53841 -0.83079 -36.39525 -20.12346 -51.18458 123.61731 41.06176 -23.42909 5.02296 -38.20737 23.71562 57.08286 112.8396 -68.96475 -9.7277 -1.67272 26.59753 -9.10565 -6.06882 -27.32827 -7.69528 -3.39141 -2.47668 47.6303 3.13867 -0.16073 -23.82287 -9.74124 3.093 2.38228
0.18402 0.00688 0.12713 -193.61694 -30.53695 2.97445 42.83195 1.503 -4.85606 -24.29796 3.61625 -0.83079 -34.947 -20.06558 -51.85497 121.24509 36.4179 -26.67238 4.32451 -37.96225 23.02001 56.94608 110.29989 -64.11355 -12.84682 -1.7976 26.02326 -9.96669 -5.5227 -27.59923 -7.8661 -3.35464 -2.46901 46.67381 2.30472 -0.61041 -24.08498 -9.42144 3.29026 2.47577
0.17706 0.00647 0.13189 -193.94157 -30.02633 3.09597 42.29579 1.59357 -4.58977 -24.24868 3.76047 -0.83079 -34.4623 -18.80812 -51.18337 120.97539 39.50335 -26.34898 3.6256 -38.36902 20.83175 55.73262 110.23245 -63.58965 -13.64624 -1.69479 25.51591 -10.36374 -3.4566 -28.42023 -8.15937 -3.49914 -2.56378 45.5453 1.86862 0.70718 -24.42357 -9.10538 3.20521 2.41585
0.17047 0.00573 0.13667 -194.24493 -29.40735 3.18853 41.51604 1.68575 -4.41814 -24.14624 3.92742 -0.83079 -34.36855 -17.06062 -49.9304 121.45503 45.00862 -24.69748 2.88573 -39.03536 18.07891 54.03184 111.07485 -64.35673 -13.57649 -1.48452 25.06765 -10.60469 -0.90462 -29.48263 -8.50056 -3.70048 -2.69092 44.35256 1.56803 2.60163 -24.78069 -8.79315 3.02682 2.30533
0.16379 0.00514 0.14139 -194.55266 -28.84251 3.29201 40.84499 1.77428 -4.21316 -24.06192 4.08272 -0.83079 -34.11707 -15.52084 -48.8845 121.60636 49.11449 -23.71609 2.18998 -39.57286 15.60766 52.49482 111.5184 -64.46436 -13.9112 -1.32411 24.63587 -10.93211 1.33514 -30.48258 -8.82301 -3.86461 -2.79707 43.19873 1.19781 4.17301 -25.12267 -8.48434 2.89846 2.22219
0.15675 0.00457 0.1463 -194.88678 -28.25299 3.40683 40.17899 1.87512 -3.96437 -24.00406 4.24393 -0.83079 -33.8001 -14.00807 -48.05735 121.68852 54.35501 -22.4258 1.35027 -40.18222 12.99092 51.17207 111.89442 -64.7385 -14.19762 -1.14063 24.01804 -11.20058 3.9623 -31.28835 -9.13401 -4.07447 -2.92852 41.99646 0.85478 5.98426 -25.49188 -8.15186 2.74126 2.12225
0.15056 0.00387 0.15083 -195.15974 -27.69145 3.48912 39.44673 1.95147 -3.83171 -23.87884 4.39766 -0.83079 -33.70154 -12.34502 -46.64216 122.09832 57.87947 -21.46028 0.81276 -40.6889 10.56837 49.29857 112.63003 -65.0239 -14.37548 -0.989 23.80417 -11.54814 5.89948 -32.55056 -9.47909 -4.20503 -3.01631 40.88345 0.49304 7.4435 -25.80836 -7.87069 2.62 2.04424
0.14654 0.00287 0.15435 -195.26353 -27.2247 3.50498 38.58135 1.95034 -3.98074 -23.57003 4.53086 -0.83079 -34.15763 -10.28329 -43.78196 123.24381 55.79371 -21.88914 1.14223 -40.90714 8.69938 46.02137 114.12825 -65.05888 -14.53994 -0.92145 24.67603 -12.20309 5.78635 -35.05078 -9.91405 -4.08305 -2.96437 40.0241 0.00752 7.73782 -25.98503 -7.72571 2.62987 2.04395
0.14337 0.00176 0.15747 -195.30674 -26.79237 3.48606 37.66004 1.92621 -4.24606 -23.19609 4.65488 -0.83079 -34.81036 -8.1107 -40.34722 124.69308 51.96296 -22.66499 1.77791 -40.9999 7.07284 42.21029 115.95888 -65.07621 -14.61408 -0.89466 25.95493 -12.93361 4.96659 -37.99185 -10.38003 -3.88288 -2.86939 39.25991 -0.49408 7.66766 -26.10639 -7.63329 2.67732 2.0665
0.13986 0.00074 0.16073 -195.38081 -26.35013 3.47223 36.77084 1.91864 -4.4694 -22.85981 4.77918 -0.83079 -35.33849 -6.06015 -37.15485 125.99671 49.13142 -23.17477 2.26488 -41.10786 5.41741 38.65054 117.64336 -65.09774 -14.68269 -0.87513 27.05842 -13.59553 4.48674 -40.71077 -10.82698 -3.73169 -2.80162 38.45794 -0.9619 7.80242 -26.24652 -7.51999 2.70102 2.07511
0.1362 -0.00046 0.16418 -195.4407 -25.87819 3.50238 35.84411 1.88515 -4.65221 -22.49137 4.91996 -0.83079 -36.02432 -3.68804 -34.01949 127.35862 45.51842 -24.09392 2.79248 -41.39903 3.39475 35.0407 119.33964 -65.17164 -14.9151 -0.75496 28.12576 -14.39527 3.94394 -43.54293 -11.29697 -3.52638 -2.70306 37.62813 -1.53549 7.79864 -26.41394 -7.39408 2.7488 2.09653
0.13304 -0.0013 0.16714 -195.51532 -25.47978 3.43339 34.98636 1.90039 -4.9432 -22.17049 5.02486 -0.83079 -36.42946 -1.96767 -30.63828 128.66101 43.0794 -24.26157 3.30581 -41.27888 2.20677 31.4096 121.07733 -65.12373 -14.79909 -0.84019 29.36149 -14.92966 3.35897 -46.22478 -11.72506 -3.41366 -2.65748 36.88279 -1.89601 7.98013 -26.51138 -7.30688 2.75765 2.09796
0.13103 -0.00111 0.16888 -195.65074 -25.25906 3.09671 34.32734 2.05361 -5.52684 -22.03818 5.02431 -0.83079 -35.95364 -2.06145 -26.70936 129.72485 44.38659 -22.26638 3.73361 -40.02094 3.22467 27.90164 122.85032 -64.67844 -13.72434 -1.62192 30.98504 -14.69972 2.82116 -48.51639 -12.03458 -3.58237 -2.77274 36.3221 -1.65046 8.8403 -26.42737 -7.31368 2.64067 2.03349
0.1295 -0.00053 0.17014 -195.80197 -25.11483 2.66244 33.74253 2.25676 -6.21074 -21.94936 4.98913 -0.83079 -35.1961 -2.819 -22.55876 130.71299 46.91888 -19.51081 4.13204 -38.35823 5.08175 24.38577 124.64627 -64.11814 -12.31067 -2.58817 32.75823 -14.20424 2.26513 -50.61351 -12.29942 -3.84529 -2.94178 35.84811 -1.19328 9.8827 -26.27519 -7.35754 2.48532 1.94928
0.12776 -0.00013 0.17161 -195.94279 -24.94727 2.27413 33.1278 2.43884 -6.83349 -21.81277 4.97571 -0.83079 -34.60496 -3.28465 -18.51735 131.73402 48.81523 -17.11137 4.52458 -36.90077 6.58714 20.83978 126.42843 -63.64621 -11.06804 -3.37333 34.44953 -13.83858 1.72039 -52.71398 -12.58177 -4.06062 -3.0835 35.35152 -0.84255 10.78697 -26.15516 -7.38448 2.35408 1.87773
0.12601 0.00027 0.17314 -196.09586 -24.7327 1.87625 32.49244 2.61446 -7.52591 -21.78876 4.93785 -0.83079 -33.86398 -3.70855 -14.41505 132.77905 50.94661 -14.67637 5.00646 -35.34872 7.98678 17.40853 128.24611 -63.01863 -9.7471 -4.55135 36.21899 -13.43318 1.1364 -55.1972 -12.87832 -4.29397 -3.23629 34.78772 -0.44843 11.90997 -26.02784 -7.41383 2.19619 1.79151
